<svg width="77" height="77" viewBox="0 0 77 77" fill="none" xmlns="http://www.w3.org/2000/svg">
<path d="M64.35 0L43.6333 21.6883H53.9L77 0H64.35Z" fill="#428BC1"/>
<path d="M53.9 0L33.3667 21.6883H43.6334L64.35 0H53.9Z" fill="#E8E8E8"/>
<path d="M43.6333 0L23.1 21.6883H33.3666L53.9 0H43.6333Z" fill="#ED4C5C"/>
<path d="M38.5001 77C59.358 77 76.2667 65.1639 76.2667 50.5633C76.2667 35.9628 59.358 24.1267 38.5001 24.1267C17.6421 24.1267 0.733398 35.9628 0.733398 50.5633C0.733398 65.1639 17.6421 77 38.5001 77Z" fill="#D3976E"/>
<path d="M19.6168 16.8117C18.7001 16.8117 17.9668 17.325 17.9668 17.9667V28.7467C17.9668 29.3883 18.7001 29.9017 19.6168 29.9017H57.3834C58.3001 29.9017 59.0334 29.3883 59.0334 28.7467V17.9667C59.0334 17.325 58.3001 16.8117 57.3834 16.8117H19.6168ZM55.7334 25.2817C55.7334 25.9233 55.0001 26.4367 54.0834 26.4367H23.1001C22.1834 26.4367 21.4501 25.9233 21.4501 25.2817V20.405C21.4501 19.7633 22.1834 19.25 23.1001 19.25H54.0834C55.0001 19.25 55.7334 19.7633 55.7334 20.405V25.2817Z" fill="#D3976E"/>
<path opacity="0.5" d="M6.04998 53.6433C6.04998 39.27 21.8167 27.5917 41.9833 26.565C41.0667 26.565 39.9667 26.4367 39.05 26.4367C19.8 26.4367 4.21664 37.345 4.21664 50.9483C4.21664 54.9267 5.68331 58.7767 8.06664 62.1133C6.78331 59.4183 6.04998 56.595 6.04998 53.6433Z" fill="#3E4347"/>
<path opacity="0.33" d="M52.9833 70.9683C70.0333 63.0117 75.1667 47.4833 65.2667 35.42L66.9167 36.96C77.55 47.9967 73.15 63.0117 57.2 70.5833C52.4333 72.8933 47.1167 74.1767 41.8 74.5617C45.8333 73.7917 49.5 72.6367 52.9833 70.9683Z" fill="white"/>
<path d="M23.1 21.6883H33.3667L12.65 0H0L23.1 21.6883Z" fill="#ED4C5C"/>
<path d="M33.3667 21.6883H43.6334L23.1001 0H12.6501L33.3667 21.6883Z" fill="#E8E8E8"/>
<path opacity="0.5" d="M40.15 3.59333L35.0166 8.98333L47.1166 21.6883H53.9L55.7333 19.8917L40.15 3.59333Z" fill="#3E4347"/>
<path d="M43.6333 21.6883H53.9L33.3666 0H23.1L43.6333 21.6883Z" fill="#428BC1"/>
<path opacity="0.5" d="M37.5834 37.8583C33.7334 37.8583 30.6167 40.04 30.6167 42.6067H25.6667C25.6667 42.9917 25.4834 43.3767 25.4834 43.7617H32.4501C32.4501 41.0667 35.5667 38.885 39.4167 38.885C40.8834 38.885 42.1667 39.27 43.2667 39.7833C41.9834 38.7567 39.9667 37.8583 37.5834 37.8583Z" fill="#3E4347"/>
<path opacity="0.5" d="M48.4001 51.0767C51.3334 49.28 53.1668 46.7133 53.1668 43.89C53.1668 40.9383 51.3334 38.2433 48.2168 36.4467C50.2334 38.115 51.5168 40.2967 51.5168 42.6067C51.5168 45.43 49.6834 48.125 46.7501 49.7933C49.6834 51.59 51.5168 54.1567 51.5168 56.98C51.5168 62.2417 45.2834 66.605 37.7668 66.605C34.4668 66.605 31.3501 65.7067 28.9668 64.295C31.5334 66.3483 35.2001 67.76 39.6001 67.76C47.1168 67.76 53.3501 63.3967 53.3501 58.135C53.1668 55.44 51.3334 52.8733 48.4001 51.0767Z" fill="#3E4347"/>
<path opacity="0.33" d="M39.4167 34.265C42.7167 34.265 45.8333 35.1633 48.2167 36.575C45.65 34.5217 41.9833 33.11 37.5833 33.11C30.0667 33.11 23.8333 37.4733 23.8333 42.735H25.6667C26.5833 37.9867 32.2667 34.265 39.4167 34.265Z" fill="white"/>
<path opacity="0.33" d="M46.2 43.89C46.2 42.2217 45.1 40.81 43.2667 39.9117C44 40.6817 44.55 41.58 44.55 42.6067C44.55 45.3017 41.4333 47.4833 37.5833 47.4833V52.36C38.1333 52.36 38.6833 52.4883 39.2333 52.4883V48.7667C43.0833 48.7667 46.2 46.585 46.2 43.89Z" fill="white"/>
<path opacity="0.33" d="M39.4167 63.14C43.2667 63.14 46.3834 60.9583 46.3834 58.2633C46.3834 56.595 45.2834 55.1833 43.45 54.285C44.1834 55.055 44.7334 55.9533 44.7334 56.98C44.7334 59.675 41.6167 61.8567 37.7667 61.8567C36.3 61.8567 35.0167 61.4717 33.9167 60.9583C35.0167 62.37 37.0334 63.14 39.4167 63.14Z" fill="white"/>
<path opacity="0.33" d="M30.9833 58.3917C30.8 58.0067 30.8 57.6217 30.8 57.2367H23.8333C23.8333 60.1883 25.6667 62.8833 28.7833 64.68C26.7667 63.0117 25.4833 60.83 25.4833 58.52L30.9833 58.3917Z" fill="white"/>
</svg>
