<svg width="28" height="29" viewBox="0 0 28 29" fill="none" xmlns="http://www.w3.org/2000/svg">
<path d="M13.6288 7.64553L4.66704 17.1372V27.3815C4.66704 27.6467 4.74897 27.9011 4.89482 28.0887C5.04067 28.2762 5.23849 28.3816 5.44475 28.3816L10.8917 28.3635C11.0973 28.3621 11.2941 28.2562 11.4391 28.0688C11.5841 27.8814 11.6655 27.6277 11.6655 27.3634V21.3808C11.6655 21.1156 11.7475 20.8612 11.8933 20.6736C12.0392 20.4861 12.237 20.3807 12.4432 20.3807H15.5541C15.7604 20.3807 15.9582 20.4861 16.104 20.6736C16.2499 20.8612 16.3318 21.1156 16.3318 21.3808V27.359C16.3315 27.4906 16.3514 27.621 16.3903 27.7427C16.4293 27.8644 16.4865 27.975 16.5588 28.0682C16.631 28.1614 16.7169 28.2353 16.8114 28.2858C16.9059 28.3362 17.0072 28.3622 17.1096 28.3622L22.5545 28.3816C22.7608 28.3816 22.9586 28.2762 23.1045 28.0887C23.2503 27.9011 23.3323 27.6467 23.3323 27.3815V17.1303L14.3725 7.64553C14.2671 7.53634 14.1359 7.4768 14.0006 7.4768C13.8653 7.4768 13.7341 7.53634 13.6288 7.64553ZM27.7847 14.0969L23.7211 9.78952V1.13168C23.7211 0.932741 23.6597 0.741954 23.5503 0.601286C23.4409 0.460618 23.2925 0.381592 23.1378 0.381592H20.4158C20.2611 0.381592 20.1128 0.460618 20.0034 0.601286C19.894 0.741954 19.8325 0.932741 19.8325 1.13168V5.67031L15.4807 1.06604C15.0631 0.624106 14.539 0.382475 13.9982 0.382475C13.4573 0.382475 12.9333 0.624106 12.5157 1.06604L0.211684 14.0969C0.15262 14.1596 0.103754 14.2368 0.0678782 14.3239C0.0320021 14.4109 0.00981906 14.5062 0.00259668 14.6043C-0.0046257 14.7024 0.0032541 14.8014 0.0257858 14.8956C0.0483176 14.9898 0.0850596 15.0773 0.133913 15.1532L1.3734 17.091C1.42212 17.1671 1.48205 17.2302 1.54975 17.2766C1.61745 17.3229 1.69159 17.3517 1.76794 17.3611C1.84429 17.3706 1.92134 17.3606 1.99468 17.3317C2.06802 17.3029 2.13621 17.2557 2.19535 17.1928L13.6288 5.08274C13.7341 4.97356 13.8653 4.91402 14.0006 4.91402C14.1359 4.91402 14.2671 4.97356 14.3725 5.08274L25.8064 17.1928C25.8654 17.2557 25.9335 17.3029 26.0067 17.3319C26.08 17.3609 26.1569 17.371 26.2332 17.3617C26.3095 17.3524 26.3836 17.3239 26.4513 17.2778C26.5191 17.2316 26.579 17.1688 26.6278 17.0928L27.8673 15.1551C27.9161 15.0788 27.9527 14.9908 27.975 14.8962C27.9973 14.8016 28.0048 14.7022 27.9971 14.6039C27.9894 14.5056 27.9667 14.4101 27.9302 14.3231C27.8938 14.2361 27.8443 14.1592 27.7847 14.0969Z" fill="#00AEFF"/>
</svg>
