<svg width="28" height="28" viewBox="0 0 28 28" fill="none" xmlns="http://www.w3.org/2000/svg">
<path d="M27.3448 7C26.4705 5.63555 15.7454 0 13.9985 0C12.2517 0 1.52236 5.62133 0.653476 7C-0.215412 8.37867 -0.220236 19.6219 0.653476 21C1.52719 22.3781 12.2535 28 13.9985 28C15.7435 28 26.4705 22.3716 27.3442 21C28.2179 19.6284 28.2191 8.36719 27.3448 7ZM17.6146 22.6527C17.3734 22.6527 15.1478 20.6965 15.3233 20.5368C15.3757 20.4892 15.7007 20.4559 16.3815 20.4367C16.3815 19.0023 16.4171 16.6857 16.4382 15.7161C16.4382 15.6067 16.4116 15.5285 16.4116 15.3962H11.5921C11.5921 15.7845 11.5643 17.3759 11.6747 19.3818C11.6885 19.6301 11.5794 19.7099 11.3286 19.7066C10.7177 19.7066 10.1063 19.7006 9.49491 19.7023C9.24769 19.7023 9.14096 19.6186 9.1488 19.3681C9.20427 17.5394 9.32969 14.7744 9.13975 7.73773V7.56438C8.55668 7.54523 8.15208 7.50969 8.09902 7.46375C7.92295 7.30406 10.1817 5.34789 10.4199 5.34789C10.658 5.34789 12.9023 7.30461 12.7275 7.46375C12.675 7.51133 12.2511 7.54523 11.7163 7.56438V7.73719C11.5703 9.14539 11.5957 12.0898 11.5577 13.5007H16.3972C16.3972 13.2519 16.4207 11.6009 16.3248 8.92664C16.3188 8.74125 16.3821 8.64391 16.5787 8.64227C17.2462 8.63789 17.9143 8.63516 18.5824 8.63898C18.791 8.63898 18.8579 8.73305 18.8537 8.9332C18.6318 19.3944 18.8127 18.6643 18.8127 20.4362C19.3475 20.4553 19.8269 20.4909 19.8794 20.5368C20.053 20.6959 17.8521 22.6527 17.6134 22.6527H17.6146Z" fill="#021989"/>
</svg>
