<svg width="77" height="77" viewBox="0 0 77 77" fill="none" xmlns="http://www.w3.org/2000/svg">
<path d="M64.3501 0L43.6334 21.6883H53.9001L77.0001 0H64.3501Z" fill="#428BC1"/>
<path d="M53.8999 0L33.3666 21.6883H43.6332L64.3499 0H53.8999Z" fill="#E8E8E8"/>
<path d="M43.6333 0L23.1 21.6883H33.3666L53.9 0H43.6333Z" fill="#ED4C5C"/>
<path d="M38.5 77C59.358 77 76.2667 65.1639 76.2667 50.5633C76.2667 35.9628 59.358 24.1267 38.5 24.1267C17.6421 24.1267 0.733368 35.9628 0.733368 50.5633C0.733368 65.1639 17.6421 77 38.5 77Z" fill="#B2C1C0"/>
<path d="M19.6168 16.8117C18.7001 16.8117 17.9668 17.325 17.9668 17.9667V28.7467C17.9668 29.3883 18.7001 29.9017 19.6168 29.9017H57.3834C58.3001 29.9017 59.0334 29.3883 59.0334 28.7467V17.9667C59.0334 17.325 58.3001 16.8117 57.3834 16.8117H19.6168ZM55.7334 25.2817C55.7334 25.9233 55.0001 26.4367 54.0834 26.4367H23.1001C22.1834 26.4367 21.4501 25.9233 21.4501 25.2817V20.405C21.4501 19.7633 22.1834 19.25 23.1001 19.25H54.0834C55.0001 19.25 55.7334 19.7633 55.7334 20.405V25.2817Z" fill="#B2C1C0"/>
<path opacity="0.5" d="M6.0501 53.6433C6.0501 39.27 21.8168 27.5917 41.9834 26.565C41.0668 26.565 39.9668 26.4367 39.0501 26.4367C19.8001 26.4367 4.21677 37.345 4.21677 50.9483C4.21677 54.9267 5.68343 58.7767 8.06677 62.1133C6.78343 59.4183 6.0501 56.595 6.0501 53.6433Z" fill="#3E4347"/>
<path opacity="0.33" d="M52.9834 70.9683C70.0335 63.0117 75.1668 47.4833 65.2668 35.42C65.8168 35.9333 66.3668 36.4467 66.9168 37.0883C77.5501 48.125 73.1501 63.14 57.2001 70.7117C52.4334 73.0217 47.1168 74.305 41.8001 74.69C45.8334 73.7917 49.5001 72.6367 52.9834 70.9683Z" fill="white"/>
<path d="M23.1 21.6883H33.3667L12.65 0H0L23.1 21.6883Z" fill="#ED4C5C"/>
<path d="M33.3667 21.6883H43.6334L23.1001 0H12.6501L33.3667 21.6883Z" fill="#E8E8E8"/>
<path opacity="0.5" d="M40.15 3.59334L35.0166 8.98334L47.1166 21.6883H53.9L55.7333 19.8917L40.15 3.59334Z" fill="#3E4347"/>
<path d="M43.6333 21.6883H53.9L33.3666 0H23.1L43.6333 21.6883Z" fill="#428BC1"/>
<path opacity="0.5" d="M37.5834 37.8583C33.7334 37.8583 30.6167 40.04 30.6167 42.6067H25.6667C25.6667 42.9917 25.4834 43.3767 25.4834 43.7617H32.4501C32.4501 41.0667 35.5667 38.885 39.4167 38.885C40.8834 38.885 42.1667 39.27 43.2667 39.7833C41.9834 38.7567 39.9667 37.8583 37.5834 37.8583Z" fill="#3E4347"/>
<path opacity="0.5" d="M51.3334 66.7333H25.6667V68.0167H53.1667V63.14H51.3334V66.7333Z" fill="#3E4347"/>
<path opacity="0.5" d="M37.5835 52.36C33.7335 52.36 30.6168 54.5417 30.6168 57.2367V62.1133H32.2668V58.52C32.2668 55.825 35.3835 53.6433 39.2335 53.6433C46.7502 53.6433 52.9835 49.28 52.9835 44.0183C52.9835 41.0667 51.1502 38.3717 48.0335 36.575C50.0502 38.2433 51.3335 40.425 51.3335 42.735C51.3335 47.9967 45.2835 52.36 37.5835 52.36Z" fill="#3E4347"/>
<path opacity="0.33" d="M32.4499 61.985H51.3333V63.14H32.4499V61.985Z" fill="white"/>
<path opacity="0.33" d="M39.4166 48.7667C43.2666 48.7667 46.3833 46.585 46.3833 43.89C46.3833 42.2217 45.2833 40.81 43.45 39.9117C44.1833 40.6817 44.7333 41.58 44.7333 42.6067C44.7333 45.3017 41.6166 47.4833 37.7666 47.4833C30.25 47.4833 24.0166 51.8467 24.0166 57.1083V66.7333H25.6666V58.2633C25.6666 53.0017 31.7166 48.7667 39.4166 48.7667Z" fill="white"/>
<path opacity="0.33" d="M39.4167 34.265C42.7167 34.265 45.8333 35.1633 48.2167 36.575C45.65 34.5217 41.9833 33.11 37.5833 33.11C30.0667 33.11 23.8333 37.4733 23.8333 42.735H25.6667C26.5833 37.9867 32.2667 34.265 39.4167 34.265Z" fill="white"/>
</svg>
