<svg width="14" height="12" viewBox="0 0 14 12" fill="none" xmlns="http://www.w3.org/2000/svg">
<path d="M6.5807 3.37938L6.61008 3.86381L6.12044 3.80449C4.33817 3.5771 2.78113 2.80597 1.45911 1.51086L0.812795 0.868242L0.646319 1.34279C0.293781 2.40063 0.519014 3.51779 1.25347 4.26915C1.64518 4.68438 1.55704 4.74369 0.881344 4.49654C0.646319 4.41744 0.440672 4.35813 0.421086 4.38779C0.352538 4.45699 0.587563 5.35665 0.773624 5.71256C1.02823 6.20688 1.54725 6.69131 2.11523 6.97801L2.59507 7.2054L2.02709 7.21528C1.4787 7.21528 1.45911 7.22517 1.51787 7.43278C1.71372 8.0754 2.48735 8.75756 3.34911 9.05415L3.95625 9.26176L3.42745 9.57812C2.64403 10.0329 1.72352 10.2899 0.803002 10.3097C0.36233 10.3196 0 10.3591 0 10.3888C0 10.4877 1.19471 11.0413 1.88999 11.2588C3.97584 11.9014 6.4534 11.6246 8.31401 10.5272C9.63603 9.74619 10.958 8.19403 11.575 6.69131C11.9079 5.89051 12.2409 4.42733 12.2409 3.7254C12.2409 3.27063 12.2703 3.21131 12.8187 2.66756C13.1418 2.3512 13.4454 2.00517 13.5041 1.90631C13.6021 1.71847 13.5923 1.71847 13.0929 1.88654C12.2605 2.18313 12.143 2.14358 12.5543 1.6987C12.8578 1.38233 13.2202 0.808924 13.2202 0.640856C13.2202 0.611196 13.0733 0.660628 12.9068 0.749605C12.7305 0.848469 12.3388 0.996764 12.045 1.08574L11.5162 1.25381L11.0364 0.92756C10.772 0.749605 10.3999 0.551878 10.204 0.49256C9.70457 0.354151 8.94074 0.373924 8.49028 0.532106C7.26619 0.976992 6.49257 2.12381 6.5807 3.37938Z" fill="white"/>
</svg>
