<svg width="28" height="29" viewBox="0 0 28 29" fill="none" xmlns="http://www.w3.org/2000/svg">
<path d="M0 28.7593H28V23.7593C27.997 21.9035 26.9636 20.1242 25.1264 18.8119C23.2892 17.4996 20.7982 16.7615 18.2 16.7593H9.8C7.20179 16.7615 4.71084 17.4996 2.87363 18.8119C1.03641 20.1242 0.00296431 21.9035 0 23.7593V28.7593Z" fill="#00AEFF"/>
<path d="M4.20001 7.75931C4.20001 9.14378 4.77477 10.4972 5.85161 11.6483C6.92845 12.7995 8.459 13.6967 10.2497 14.2265C12.0404 14.7563 14.0109 14.8949 15.9119 14.6248C17.8129 14.3547 19.5591 13.688 20.9297 12.7091C22.3002 11.7301 23.2336 10.4828 23.6117 9.12495C23.9898 7.76708 23.7958 6.35961 23.054 5.08053C22.3123 3.80144 21.0562 2.70819 19.4446 1.93902C17.833 1.16985 15.9383 0.759308 14 0.759308C11.4009 0.759308 8.90822 1.49681 7.07037 2.80956C5.23251 4.12232 4.20001 5.9028 4.20001 7.75931Z" fill="#00AEFF"/>
</svg>
